<svg xmlns="http://www.w3.org/2000/svg" width="1600" height="420" viewBox="0 0 1600 420">
  <path d="M0 310 150 185 285 280 450 95 610 275 790 145 960 285 1135 105 1300 270 1450 155 1600 300V420H0Z" fill="#7b69ad"/>
  <path d="M0 342 180 250 325 330 510 205 700 325 870 245 1040 332 1230 210 1410 322 1600 255V420H0Z" fill="#5f538f" opacity=".8"/>
  <g fill="#ece8ff" opacity=".75">
    <path d="m408 132 42-37 47 45-39-14-15 22-14-19Z"/><path d="m1098 138 37-33 43 41-35-13-13 19-12-16Z"/>
  </g>
</svg>
