<svg xmlns="http://www.w3.org/2000/svg" width="220" height="260" viewBox="0 0 220 260">
  <g stroke="#293241" stroke-width="7" stroke-linecap="round" stroke-linejoin="round">
    <path d="M62 122q48-28 96 0l18 119H44Z" fill="#7656aa"/>
    <path d="M50 205q60 25 120 0" fill="none" stroke="#e7c27d" stroke-width="8"/>
    <circle cx="110" cy="78" r="46" fill="#c78355"/>
    <path d="M66 72q8-48 45-49 39 0 47 48-17-19-31-12-19-20-32 0-16-11-29 13Z" fill="#d6d0c7"/>
    <circle cx="94" cy="78" r="4" fill="#293241" stroke="none"/><circle cx="126" cy="78" r="4" fill="#293241" stroke="none"/>
    <path d="M96 99q14 12 29 0M70 130 38 164M151 130l31 33" fill="none"/>
    <path d="M55 240h110" fill="none" stroke="#70452d" stroke-width="12"/>
  </g>
  <circle cx="110" cy="156" r="14" fill="#f1e7ff"/><circle cx="110" cy="156" r="7" fill="#7656aa"/>
</svg>
